<?xml version="1.0" encoding="UTF-8"?>
<svg version="1.1" xmlns="http://www.w3.org/2000/svg" width="458" height="166">
<path d="M0 0 C151.14 0 302.28 0 458 0 C458 54.78 458 109.56 458 166 C306.86 166 155.72 166 0 166 C0 111.22 0 56.44 0 0 Z " fill="#050A2A" transform="translate(0,0)"/>
<path d="M0 0 C2.1167565 0.02383624 4.23226169 0.02049314 6.34912109 0.01391602 C28.5196564 0.05769822 45.6479055 6.53958485 61.97802734 21.87524414 C75.31187662 35.69156823 82.69184622 51.84665003 82.79052734 71.02368164 C82.82339844 72.13163086 82.85626953 73.23958008 82.89013672 74.38110352 C82.96852455 86.57397507 78.98630866 95.54280501 70.57177734 104.26586914 C64.06623489 110.33618164 64.06623489 110.33618164 60.35302734 110.33618164 C60.33884766 110.91625977 60.32466797 111.49633789 60.31005859 112.09399414 C60.01697812 116.89417704 59.49662293 120.43116897 55.99365234 124.05493164 C50.64647051 128.23082603 44.77626584 129.75490847 38.10302734 130.16040039 C36.32578251 130.15246126 36.32578251 130.15246126 35.35302734 131.33618164 C35.11583992 134.94670134 34.95647053 138.55037913 34.83544922 142.16625977 C34.56630859 148.12290039 34.56630859 148.12290039 32.35302734 150.33618164 C29.54052734 150.96118164 29.54052734 150.96118164 26.35302734 150.33618164 C24.30461032 147.67877578 22.90383109 145.2912565 21.35302734 142.33618164 C20.22537941 140.26838819 19.08712913 138.20692447 17.94213867 136.14868164 C17.13986313 134.70319825 16.34653548 133.25270817 15.56274414 131.79711914 C15.19189697 131.12165039 14.8210498 130.44618164 14.43896484 129.75024414 C14.10944824 129.14132324 13.77993164 128.53240234 13.44042969 127.9050293 C12.27541354 126.01876754 12.27541354 126.01876754 9.35302734 124.33618164 C7.31596259 124.16407506 5.27183422 124.06958274 3.22802734 124.02368164 C-3.0778727 123.60235202 -7.77636069 122.48634892 -12.64697266 118.33618164 C-15.42256784 114.91339239 -17.25646591 111.50770188 -18.64697266 107.33618164 C-19.56921631 107.33730957 -20.49145996 107.3384375 -21.44165039 107.33959961 C-24.90354094 107.32960231 -28.36308936 107.29280371 -31.82446289 107.23852539 C-33.3149325 107.22049227 -34.80556751 107.21277364 -36.29614258 107.21606445 C-45.49954447 107.22840559 -52.56214347 106.86263257 -59.64697266 100.33618164 C-60.26660889 99.79928711 -60.88624512 99.26239258 -61.5246582 98.70922852 C-63.3391215 97.07730827 -65.06173714 95.38919546 -66.77197266 93.64868164 C-67.37235352 93.04217773 -67.97273438 92.43567383 -68.59130859 91.81079102 C-76.28642032 83.84398876 -82.82122716 75.04510313 -83.08447266 63.58618164 C-82.94853545 55.76008266 -80.04138362 50.19779475 -75.08447266 44.27368164 C-72.47527591 41.12926505 -71.1725873 38.22945325 -69.60009766 34.50415039 C-65.77173058 25.79618429 -58.91186763 20.54376453 -50.64697266 16.33618164 C-49.13103516 15.93399414 -49.13103516 15.93399414 -47.58447266 15.52368164 C-44.48431357 14.27042584 -43.77130047 13.49941182 -41.77197266 10.96118164 C-32.3969151 -0.5663126 -13.74888092 -0.16493533 0 0 Z " fill="#040C2D" transform="translate(92.64697265625,7.663818359375)"/>
<path d="M0 0 C2.1167565 0.02383624 4.23226169 0.02049314 6.34912109 0.01391602 C28.5196564 0.05769822 45.6479055 6.53958485 61.97802734 21.87524414 C75.31187662 35.69156823 82.69184622 51.84665003 82.79052734 71.02368164 C82.82339844 72.13163086 82.85626953 73.23958008 82.89013672 74.38110352 C82.96852455 86.57397507 78.98630866 95.54280501 70.57177734 104.26586914 C64.06623489 110.33618164 64.06623489 110.33618164 60.35302734 110.33618164 C60.33884766 110.91625977 60.32466797 111.49633789 60.31005859 112.09399414 C60.01697812 116.89417704 59.49662293 120.43116897 55.99365234 124.05493164 C50.64647051 128.23082603 44.77626584 129.75490847 38.10302734 130.16040039 C36.32578251 130.15246126 36.32578251 130.15246126 35.35302734 131.33618164 C35.11583992 134.94670134 34.95647053 138.55037913 34.83544922 142.16625977 C34.56630859 148.12290039 34.56630859 148.12290039 32.35302734 150.33618164 C29.54052734 150.96118164 29.54052734 150.96118164 26.35302734 150.33618164 C24.30461032 147.67877578 22.90383109 145.2912565 21.35302734 142.33618164 C20.22537941 140.26838819 19.08712913 138.20692447 17.94213867 136.14868164 C17.13986313 134.70319825 16.34653548 133.25270817 15.56274414 131.79711914 C15.19189697 131.12165039 14.8210498 130.44618164 14.43896484 129.75024414 C14.10944824 129.14132324 13.77993164 128.53240234 13.44042969 127.9050293 C12.27541354 126.01876754 12.27541354 126.01876754 9.35302734 124.33618164 C7.31596259 124.16407506 5.27183422 124.06958274 3.22802734 124.02368164 C-3.0778727 123.60235202 -7.77636069 122.48634892 -12.64697266 118.33618164 C-15.42256784 114.91339239 -17.25646591 111.50770188 -18.64697266 107.33618164 C-19.56921631 107.33730957 -20.49145996 107.3384375 -21.44165039 107.33959961 C-24.90354094 107.32960231 -28.36308936 107.29280371 -31.82446289 107.23852539 C-33.3149325 107.22049227 -34.80556751 107.21277364 -36.29614258 107.21606445 C-45.49954447 107.22840559 -52.56214347 106.86263257 -59.64697266 100.33618164 C-60.26660889 99.79928711 -60.88624512 99.26239258 -61.5246582 98.70922852 C-63.3391215 97.07730827 -65.06173714 95.38919546 -66.77197266 93.64868164 C-67.37235352 93.04217773 -67.97273438 92.43567383 -68.59130859 91.81079102 C-76.28642032 83.84398876 -82.82122716 75.04510313 -83.08447266 63.58618164 C-82.94853545 55.76008266 -80.04138362 50.19779475 -75.08447266 44.27368164 C-72.47527591 41.12926505 -71.1725873 38.22945325 -69.60009766 34.50415039 C-65.77173058 25.79618429 -58.91186763 20.54376453 -50.64697266 16.33618164 C-49.13103516 15.93399414 -49.13103516 15.93399414 -47.58447266 15.52368164 C-44.48431357 14.27042584 -43.77130047 13.49941182 -41.77197266 10.96118164 C-32.3969151 -0.5663126 -13.74888092 -0.16493533 0 0 Z M-36.64697266 11.33618164 C-38.15872284 13.04767083 -39.51728791 14.83000629 -40.89697266 16.64868164 C-43.20868611 18.8778339 -45.52879389 19.69877371 -48.52197266 20.83618164 C-60.15480908 25.36882814 -64.1532056 32.45802253 -69.52978516 43.21118164 C-71.5649936 47.26324679 -73.91043251 50.9868951 -76.55322266 54.67211914 C-79.48273645 59.12916513 -79.24552353 64.22660105 -78.64697266 69.33618164 C-75.13202286 81.57926521 -61.42697174 94.70950881 -50.96044922 101.41699219 C-47.79352525 102.67527298 -45.0963328 102.56032876 -41.69384766 102.53149414 C-40.70351532 102.5272493 -40.70351532 102.5272493 -39.69317627 102.5229187 C-37.59425369 102.51176579 -35.49576523 102.4866711 -33.39697266 102.46118164 C-31.96989551 102.45114548 -30.54281164 102.44202074 -29.11572266 102.43383789 C-25.62599938 102.41184275 -22.13652842 102.377347 -18.64697266 102.33618164 C-18.64697266 98.37618164 -18.64697266 94.41618164 -18.64697266 90.33618164 C-24.68752368 89.88278923 -24.68752368 89.88278923 -30.64697266 90.33618164 C-32.35967894 92.74618725 -32.35967894 92.74618725 -33.64697266 95.33618164 C-37.08447266 96.39868164 -37.08447266 96.39868164 -40.64697266 96.33618164 C-43.08447266 94.83618164 -43.08447266 94.83618164 -44.64697266 92.33618164 C-45.14697266 88.77368164 -45.14697266 88.77368164 -44.64697266 85.33618164 C-43.08447266 83.33618164 -43.08447266 83.33618164 -40.64697266 82.33618164 C-37.08447266 82.46118164 -37.08447266 82.46118164 -33.64697266 83.33618164 C-33.22287109 83.83762695 -32.79876953 84.33907227 -32.36181641 84.85571289 C-28.96566999 87.78769351 -24.24804987 86.90702526 -19.98291016 86.83227539 C-16.6007777 86.3293119 -15.49533298 86.06187671 -13.39697266 83.46118164 C-12.53072266 81.91430664 -12.53072266 81.91430664 -11.64697266 80.33618164 C-10.98697266 79.67618164 -10.32697266 79.01618164 -9.64697266 78.33618164 C-10.40880859 77.68262695 -10.40880859 77.68262695 -11.18603516 77.01586914 C-14.52487723 74.12720802 -17.76653161 71.26092533 -20.77197266 68.02368164 C-25.92582539 63.20594974 -31.47307546 62.95163149 -38.20947266 62.89868164 C-38.95132813 62.86581055 -39.69318359 62.83293945 -40.45751953 62.79907227 C-44.7242785 62.75727854 -46.14613092 62.89604799 -49.48291016 65.82836914 C-50.19705078 66.65594727 -50.91119141 67.48352539 -51.64697266 68.33618164 C-55.36534801 69.01914854 -56.89686097 68.84941595 -60.02197266 66.71118164 C-62.09247951 63.68505624 -62.03013535 61.93791096 -61.64697266 58.33618164 C-61.31697266 57.34618164 -60.98697266 56.35618164 -60.64697266 55.33618164 C-52.07554408 54.05046735 -52.07554408 54.05046735 -48.64697266 55.33618164 C-48.31697266 56.65618164 -47.98697266 57.97618164 -47.64697266 59.33618164 C-47.09348145 59.34029053 -46.53999023 59.34439941 -45.96972656 59.34863281 C-23.34017245 59.64298185 -23.34017245 59.64298185 -15.35009766 67.63305664 C-13.94062339 69.20247125 -12.56640648 70.80475126 -11.24072266 72.44555664 C-9.77538852 74.436817 -9.77538852 74.436817 -7.64697266 75.33618164 C-6.27354435 75.40512884 -4.89695164 75.42085872 -3.52197266 75.39868164 C-2.24322266 75.37805664 -0.96447266 75.35743164 0.35302734 75.33618164 C0.68302734 70.71618164 1.01302734 66.09618164 1.35302734 61.33618164 C-1.47900391 60.75024414 -1.47900391 60.75024414 -4.31103516 60.16430664 C-11.30664207 57.68425871 -15.90711647 52.14548338 -20.86572266 46.89477539 C-24.24232802 43.78848815 -27.36148275 41.62282335 -31.98291016 41.04321289 C-34.81494141 41.18969727 -34.81494141 41.18969727 -37.64697266 41.33618164 C-37.97697266 42.32618164 -38.30697266 43.31618164 -38.64697266 44.33618164 C-46.69299127 45.91787761 -46.69299127 45.91787761 -50.20947266 43.77368164 C-52.06055577 40.63488854 -52.24518807 38.92547415 -51.64697266 35.33618164 C-50.20947266 32.89868164 -50.20947266 32.89868164 -47.64697266 31.33618164 C-44.57174491 31.30971669 -41.65948619 31.74397813 -38.64697266 32.33618164 C-38.42525391 33.13926758 -38.20353516 33.94235352 -37.97509766 34.76977539 C-36.91179427 37.55835902 -36.91179427 37.55835902 -34.25634766 38.12133789 C-33.31275391 38.21286133 -32.36916016 38.30438477 -31.39697266 38.39868164 C-23.4173603 39.20325581 -18.80027931 43.91288487 -13.52197266 49.46118164 C-8.4530079 55.00340402 -8.4530079 55.00340402 -1.64697266 57.67211914 C2.85541696 57.80155912 2.85541696 57.80155912 6.60302734 55.46118164 C7.18052734 54.75993164 7.75802734 54.05868164 8.35302734 53.33618164 C11.11131979 51.69047775 13.19205484 51.21262263 16.35302734 50.96118164 C23.73820316 49.42260335 28.9859468 43.12114548 33.35302734 37.33618164 C34.36787029 34.10371894 34.35302734 31.76933164 34.35302734 28.33618164 C35.97802734 26.21118164 35.97802734 26.21118164 38.35302734 25.33618164 C44.68030007 25.66345437 44.68030007 25.66345437 47.35302734 28.33618164 C47.90097255 35.24029123 47.90097255 35.24029123 46.35302734 38.33618164 C44.35302734 39.33618164 44.35302734 39.33618164 40.58349609 39.03930664 C36.86669415 38.9957471 36.4701188 39.23754566 33.40380859 41.82055664 C32.47666531 42.89687437 31.56435611 43.98610828 30.66552734 45.08618164 C25.74396016 50.58699107 21.64277452 52.95615992 14.26318359 54.49243164 C10.15247043 55.68426257 7.50538901 57.69389376 5.04833984 61.19555664 C4.11722543 64.06213361 4.16266707 66.57960912 4.22802734 69.58618164 C4.24607422 70.66383789 4.26412109 71.74149414 4.28271484 72.85180664 C4.30591797 73.67165039 4.32912109 74.49149414 4.35302734 75.33618164 C8.09641849 75.88209285 10.21771657 76.09448355 13.42333984 73.95336914 C16.43832236 71.3052286 19.20790261 68.48821707 21.97802734 65.58618164 C28.55294443 59.35731282 35.40014754 59.9152315 43.91748047 59.98461914 C46.48355927 59.94103394 48.84380812 59.88006903 51.35302734 59.33618164 C53.30905855 56.94464264 53.30905855 56.94464264 54.35302734 54.33618164 C57.06789707 53.50420544 59.57956213 53.81615691 62.35302734 54.33618164 C64.35302734 55.46118164 64.35302734 55.46118164 65.35302734 57.33618164 C65.76919253 60.59614228 65.62964614 62.67921199 64.35302734 65.71118164 C61.66115025 67.89833178 59.67478659 67.81615499 56.29052734 67.86743164 C54.35302734 67.33618164 54.35302734 67.33618164 53.14990234 65.33227539 C51.00824882 62.95317768 50.45489107 63.00962343 47.36865234 62.84008789 C45.77999117 62.83875958 44.19119604 62.85910509 42.60302734 62.89868164 C41.81669922 62.8915918 41.03037109 62.88450195 40.22021484 62.87719727 C33.60809065 62.94859063 28.2594888 64.29997038 23.36865234 69.00024414 C22.43613132 69.97717092 21.5142147 70.96432709 20.60302734 71.96118164 C16.91208304 75.92665899 14.76380934 78.2332301 9.06005859 78.47680664 C7.77486328 78.51290039 6.48966797 78.54899414 5.16552734 78.58618164 C-1.20087927 78.91375791 -5.98150963 79.77865992 -10.64697266 84.33618164 C-15.50882518 89.92731204 -15.08795438 95.49703447 -15.08056641 102.71508789 C-14.34837905 108.82984175 -11.69479548 113.28341469 -7.00634766 117.16040039 C-2.89433295 119.20959977 1.42859333 118.96772485 5.95068359 118.93774414 C10.22282803 119.43804119 12.09967612 120.5278853 15.35302734 123.33618164 C17.15491387 125.81487777 18.57219004 128.42989271 19.97802734 131.14868164 C20.72006492 132.53027259 21.46225132 133.91178362 22.20458984 135.29321289 C22.55811523 135.96304199 22.91164063 136.63287109 23.27587891 137.32299805 C24.90369221 140.36537078 26.62690621 143.3486643 28.35302734 146.33618164 C29.01302734 146.33618164 29.67302734 146.33618164 30.35302734 146.33618164 C30.39041016 145.22758789 30.42779297 144.11899414 30.46630859 142.97680664 C30.53198182 141.5132319 30.5984287 140.04969173 30.66552734 138.58618164 C30.68808594 137.85657227 30.71064453 137.12696289 30.73388672 136.37524414 C30.88897597 133.27345915 31.17797139 130.71011069 32.50146484 127.88305664 C35.12665309 125.6898614 37.28769309 125.64786185 40.66552734 125.33618164 C46.10326903 124.64058621 49.31277459 124.05746707 53.35302734 120.33618164 C55.54005097 117.34724935 56.35302734 116.0567371 56.35302734 112.33618164 C50.41302734 112.83118164 50.41302734 112.83118164 44.35302734 113.33618164 C43.85802734 114.82118164 43.85802734 114.82118164 43.35302734 116.33618164 C39.77298961 117.52952755 37.10986838 117.67161388 33.35302734 117.33618164 C30.72761322 115.13422141 30.40848254 113.71644585 29.91552734 110.33618164 C30.35302734 107.33618164 30.35302734 107.33618164 31.91552734 104.89868164 C34.35302734 103.33618164 34.35302734 103.33618164 37.85302734 103.27368164 C41.35302734 104.33618164 41.35302734 104.33618164 43.35302734 106.89868164 C45.1715217 109.65220094 45.1715217 109.65220094 48.47802734 109.89868164 C58.42135401 108.45529551 65.81064839 103.98055705 72.35302734 96.33618164 C79.32545577 84.64616976 80.03464201 70.87883836 77.70458984 57.65649414 C72.48032273 39.39388517 60.58931019 22.6969035 43.89208984 13.32836914 C23.83792999 2.6666639 -17.06671984 -3.6438913 -36.64697266 11.33618164 Z " fill="#01A6D1" transform="translate(92.64697265625,7.663818359375)"/>
<path d="M0 0 C4.32380898 2.26038604 6.8950928 4.9301192 8.92578125 9.31640625 C9.79299144 15.36716826 9.24571465 20.05984503 5.92578125 25.31640625 C7.57578125 25.31640625 9.22578125 25.31640625 10.92578125 25.31640625 C10.92578125 26.96640625 10.92578125 28.61640625 10.92578125 30.31640625 C7.21771529 30.4331533 3.51012585 30.50383899 -0.19921875 30.56640625 C-1.2459375 30.59992188 -2.29265625 30.6334375 -3.37109375 30.66796875 C-9.4536282 30.74496286 -13.36631075 30.60935441 -18.07421875 26.31640625 C-21.19827678 22.7927594 -22.90222748 19.40568427 -23.63671875 14.75390625 C-22.72875338 9.205229 -20.60290726 5.69950538 -16.44921875 1.94140625 C-11.4642573 -1.46935685 -5.79520588 -1.90990778 0 0 Z " fill="#8477F6" transform="translate(326.07421875,57.68359375)"/>
<path d="M0 0 C14 0 14 0 19 4 C19.78390911 6.90539742 19.34623323 8.93336281 19 12 C18.34 12.66 17.68 13.32 17 14 C18.2375 15.051875 18.2375 15.051875 19.5 16.125 C22 19 22 19 22.4375 22.0625 C22.01614699 24.89158449 21.5965514 26.6471874 20 29 C16.95318939 31.03120707 16.39881676 31.24659875 12.98828125 31.1953125 C12.30548096 31.19031738 11.62268066 31.18532227 10.91918945 31.18017578 C10.05898193 31.16196777 9.19877441 31.14375977 8.3125 31.125 C4.1978125 31.063125 4.1978125 31.063125 0 31 C0 20.77 0 10.54 0 0 Z " fill="#EEF2F9" transform="translate(217,57)"/>
<path d="M0 0 C2.125 1.625 2.125 1.625 3 4 C2.93522551 7.69214611 2.83501397 10.03652234 0.375 12.875 C-2 14 -2 14 -5.29296875 14.23046875 C-9.76803612 15.15943426 -11.77500622 17.13946747 -14.6875 20.4375 C-18.64425724 24.77161978 -21.36612218 27.60243354 -27.3125 28.5 C-32.20863984 27.83611663 -34.80124886 25.67982981 -38 22 C-38.34417969 21.30648437 -38.68835938 20.61296875 -39.04296875 19.8984375 C-40.4003561 17.20582422 -42.40521092 16.427134 -45 15 C-47 13 -47 13 -47.4375 9.125 C-47.34104055 5.81523525 -47.11838617 5.14708585 -44.9375 2.4375 C-41.10852228 0.56374495 -39.06665724 0.87037299 -35 2 C-33.0625 3.0625 -33.0625 3.0625 -32 5 C-31.64405241 7.80165201 -31.77288669 10.13837234 -32 13 C-32.66 13.66 -33.32 14.32 -34 15 C-33.8421384 18.07830123 -33.38538785 19.57179128 -31.3125 21.875 C-28.09353497 23.44098299 -26.43467245 22.91647319 -23 22 C-18.62261636 18.89267415 -13.58337915 14.94424164 -12.5 9.4765625 C-12.58086782 7.95523663 -12.70448315 6.43533085 -12.87890625 4.921875 C-13 3 -13 3 -11.5625 0.375 C-7.6340583 -1.73294433 -4.20674308 -1.22464732 0 0 Z " fill="#01A6D1" transform="translate(115,23)"/>
<path d="M0 0 C3.5 0.5 3.5 0.5 5.9375 2.0625 C8.10396028 5.44217804 8.06288002 7.55983987 7.5 11.5 C5.9375 13.9375 5.9375 13.9375 3.5 15.5 C0 16 0 16 -3.5 15.5 C-5.9375 13.625 -5.9375 13.625 -7.5 11.5 C-7.5 10.84 -7.5 10.18 -7.5 9.5 C-20.05343733 9.07846744 -20.05343733 9.07846744 -30.875 14.875 C-32.45531054 16.3770289 -34.003482 17.91446978 -35.5 19.5 C-36.07105469 20.01820312 -36.64210938 20.53640625 -37.23046875 21.0703125 C-38.81852743 22.64374829 -38.81852743 22.64374829 -39.4375 26 C-40.5 29.5 -40.5 29.5 -42.25 31.4375 C-45.26566861 32.86156573 -47.20166169 32.98100767 -50.5 32.5 C-53.43507943 30.43751175 -54.34435488 28.95720755 -55.5 25.5625 C-55.5 22.5 -55.5 22.5 -54.25 19.625 C-50.97009866 17.09053078 -50.38382998 17.42294811 -46.4375 17.8125 C-42.36145102 18.04744652 -40.86786796 17.75997903 -37.4765625 15.36328125 C-35.57901912 13.58020094 -33.72044227 11.75441896 -31.91015625 9.8828125 C-28.56372462 6.57434687 -26.01464115 5.26617526 -21.3125 5.2265625 C-20.53132813 5.2059375 -19.75015625 5.1853125 -18.9453125 5.1640625 C-17.31521022 5.13802253 -15.68496447 5.11979211 -14.0546875 5.109375 C-9.17748911 5.04287049 -9.17748911 5.04287049 -5.15625 2.4921875 C-3.5 0.5 -3.5 0.5 0 0 Z " fill="#01A7D2" transform="translate(144.5,85.5)"/>
<path d="M0 0 C3.74030185 1.60298651 4.73158465 2.59737698 7 6 C7 6.99 7 7.98 7 9 C3.625 9.1875 3.625 9.1875 0 9 C-0.66 8.01 -1.32 7.02 -2 6 C-5.08365871 5.7497843 -5.08365871 5.7497843 -8 6 C-8.66 7.32 -9.32 8.64 -10 10 C-9.26394531 10.18175781 -8.52789062 10.36351563 -7.76953125 10.55078125 C-1.66743834 12.12265459 3.44061088 13.44061088 8 18 C8.46327182 22.09223437 8.4484975 24.27920044 6.25 27.8125 C2.97456475 30.99695094 0.26310584 32.29372814 -4.3125 32.375 C-9.25636325 32.26078534 -12.02871613 30.91767795 -16 28 C-17.85758514 25.33476915 -18 24.29052817 -18 21 C-14.6875 20.75 -14.6875 20.75 -11 21 C-10 22.33333333 -9 23.66666667 -8 25 C-4.37436186 25.33380814 -4.37436186 25.33380814 -1 25 C-0.67 23.68 -0.34 22.36 0 21 C-0.80824219 20.76925781 -1.61648438 20.53851563 -2.44921875 20.30078125 C-13.76930843 16.84603735 -13.76930843 16.84603735 -17 12 C-17.7446324 8.02862719 -17.37266878 6.55900317 -15.125 3.1875 C-10.85556863 -1.20750288 -5.81756261 -0.4791923 0 0 Z " fill="#8477F5" transform="translate(413,57)"/>
<path d="M0 0 C2.31 0 4.62 0 7 0 C7.02505615 0.62567871 7.0501123 1.25135742 7.07592773 1.89599609 C7.19175273 4.72254619 7.31453985 7.54875169 7.4375 10.375 C7.47681641 11.35984375 7.51613281 12.3446875 7.55664062 13.359375 C7.59853516 14.30039063 7.64042969 15.24140625 7.68359375 16.2109375 C7.72025146 17.08024902 7.75690918 17.94956055 7.79467773 18.84521484 C7.87401544 21.0483262 7.87401544 21.0483262 9 23 C11.64 23 14.28 23 17 23 C18.20270964 20.59458071 18.20316663 18.89633409 18.31640625 16.2109375 C18.35830078 15.26992187 18.40019531 14.32890625 18.44335938 13.359375 C18.48267578 12.37453125 18.52199219 11.3896875 18.5625 10.375 C18.60568359 9.38242188 18.64886719 8.38984375 18.69335938 7.3671875 C18.79961069 4.91160162 18.90164964 2.45591297 19 0 C21.31 0 23.62 0 26 0 C26.11674705 3.70806596 26.18743274 7.4156554 26.25 11.125 C26.28351563 12.17171875 26.31703125 13.2184375 26.3515625 14.296875 C26.43048886 20.53205705 26.2738708 24.31104102 22 29 C17.33459182 32.11027212 12.46304595 31.60536455 7 31 C3.27198267 28.91231029 1.58755377 26.8991637 0 23 C-0.22705078 20.43457031 -0.22705078 20.43457031 -0.1953125 17.578125 C-0.18564453 16.04091797 -0.18564453 16.04091797 -0.17578125 14.47265625 C-0.15902344 13.40917969 -0.14226562 12.34570312 -0.125 11.25 C-0.11597656 10.17105469 -0.10695313 9.09210938 -0.09765625 7.98046875 C-0.07411305 5.32008722 -0.04122799 2.66015664 0 0 Z " fill="#8577F7" transform="translate(340,57)"/>
<path d="M0 0 C4.01236373 1.97098569 6.69250253 4.15417088 9 8 C9 8.66 9 9.32 9 10 C1.23529412 10.38823529 1.23529412 10.38823529 -3 7 C-6.59450128 6.4758019 -8.28110505 6.51426017 -11.3125 8.5625 C-13.55171252 11.79691808 -13.93123623 14.08046521 -14 18 C-12.65437601 20.94755732 -11.91445456 22.54277272 -9 24 C-6.12635209 24.41746608 -6.12635209 24.41746608 -3 24 C-2.195625 23.34 -1.39125 22.68 -0.5625 22 C2.76030692 19.40658972 4.89184009 19.67779138 9 20 C8.84817368 22.65696068 8.52675976 24.44234524 6.66796875 26.41015625 C1.3052504 30.88561219 -2.07308338 31.46783683 -8.9453125 31.41015625 C-13.68127462 30.77425341 -16.1142155 28.68739131 -19 25 C-21.91228093 20.58460634 -22.56302169 17.25486913 -22 12 C-18.30897915 1.36117521 -10.68880486 -1.75177635 0 0 Z " fill="#E9EDF5" transform="translate(264,57)"/>
<path d="M0 0 C5.94 0 11.88 0 18 0 C18 1.98 18 3.96 18 6 C14.37 6 10.74 6 7 6 C7 7.98 7 9.96 7 12 C10.63 12 14.26 12 18 12 C18 14.31 18 16.62 18 19 C14.37 19 10.74 19 7 19 C7 20.98 7 22.96 7 25 C10.63 25 14.26 25 18 25 C18 26.98 18 28.96 18 31 C12.06 31 6.12 31 0 31 C0 20.77 0 10.54 0 0 Z " fill="#8578F8" transform="translate(372,57)"/>
<path d="M0 0 C7.92 0 15.84 0 24 0 C24 1.98 24 3.96 24 6 C21.36 6 18.72 6 16 6 C16 14.25 16 22.5 16 31 C13.69 31 11.38 31 9 31 C9 22.75 9 14.5 9 6 C6.03 6 3.06 6 0 6 C0 4.02 0 2.04 0 0 Z " fill="#8679F9" transform="translate(424,57)"/>
<path d="M0 0 C3.5442914 0.80009747 4.97740702 2.51479019 6.97265625 5.4453125 C7.76046905 9.8570642 7.50240758 11.66724024 4.97265625 15.3828125 C1.65681934 17.66245038 -0.13637086 18.26198712 -4.0859375 17.9921875 C-7.84573142 16.93309062 -9.18130413 14.72054408 -11.02734375 11.4453125 C-11.09551948 7.49112045 -10.59386605 5.32908728 -8.46484375 2.0078125 C-5.62549856 0.18771943 -3.36656812 -0.18877952 0 0 Z " fill="#070C2E" transform="translate(321.02734375,63.5546875)"/>
<path d="M0 0 C2.31 0 4.62 0 7 0 C7 10.23 7 20.46 7 31 C4.69 31 2.38 31 0 31 C0 20.77 0 10.54 0 0 Z " fill="#E5E9F2" transform="translate(278,57)"/>
<path d="M0 0 C2.875 -0.125 2.875 -0.125 6 0 C6.66 0.66 7.32 1.32 8 2 C7.44444444 6.55555556 7.44444444 6.55555556 6 8 C4.00041636 8.04080783 1.99954746 8.04254356 0 8 C0 5.36 0 2.72 0 0 Z " fill="#1F2441" transform="translate(224,75)"/>
<path d="M0 0 C2.625 0.375 2.625 0.375 5 1 C5.125 3.375 5.125 3.375 5 6 C4.34 6.66 3.68 7.32 3 8 C0.875 7.625 0.875 7.625 -1 7 C-1.625 4.625 -1.625 4.625 -2 2 C-1.34 1.34 -0.68 0.68 0 0 Z " fill="#041D3E" transform="translate(46,42)"/>
<path d="M0 0 C2.625 0.375 2.625 0.375 5 1 C5.625 2.875 5.625 2.875 6 5 C5.34 5.66 4.68 6.32 4 7 C1.375 6.625 1.375 6.625 -1 6 C-1.625 4.125 -1.625 4.125 -2 2 C-1.34 1.34 -0.68 0.68 0 0 Z " fill="#041737" transform="translate(149,65)"/>
<path d="M0 0 C1.66611905 -0.042721 3.33382885 -0.04063832 5 0 C6 1 6 1 6.0625 3.5625 C6.041875 4.366875 6.02125 5.17125 6 6 C3.625 6.625 3.625 6.625 1 7 C0.34 6.34 -0.32 5.68 -1 5 C-0.625 2.375 -0.625 2.375 0 0 Z " fill="#041536" transform="translate(127,115)"/>
<path d="M0 0 C1.2065625 0.0309375 1.2065625 0.0309375 2.4375 0.0625 C3.0625 2.4375 3.0625 2.4375 3.4375 5.0625 C2.7775 5.7225 2.1175 6.3825 1.4375 7.0625 C-1.1875 6.6875 -1.1875 6.6875 -3.5625 6.0625 C-3.605221 4.39638095 -3.60313832 2.72867115 -3.5625 1.0625 C-2.5625 0.0625 -2.5625 0.0625 0 0 Z " fill="#041334" transform="translate(144.5625,89.9375)"/>
<path d="M0 0 C1.2065625 0.0309375 1.2065625 0.0309375 2.4375 0.0625 C3.0625 2.4375 3.0625 2.4375 3.4375 5.0625 C2.7775 5.7225 2.1175 6.3825 1.4375 7.0625 C-1.1875 6.6875 -1.1875 6.6875 -3.5625 6.0625 C-3.605221 4.39638095 -3.60313832 2.72867115 -3.5625 1.0625 C-2.5625 0.0625 -2.5625 0.0625 0 0 Z " fill="#041637" transform="translate(38.5625,65.9375)"/>
<path d="M0 0 C1.2065625 0.0309375 1.2065625 0.0309375 2.4375 0.0625 C3.0625 2.4375 3.0625 2.4375 3.4375 5.0625 C2.7775 5.7225 2.1175 6.3825 1.4375 7.0625 C-0.6875 6.6875 -0.6875 6.6875 -2.5625 6.0625 C-2.94468767 4.40635343 -3.27645102 2.73792976 -3.5625 1.0625 C-2.5625 0.0625 -2.5625 0.0625 0 0 Z " fill="#041131" transform="translate(97.5625,106.9375)"/>
<path d="M0 0 C2.125 0.375 2.125 0.375 4 1 C4.38218767 2.65614657 4.71395102 4.32457024 5 6 C4 7 4 7 1.4375 7.0625 C0.2309375 7.0315625 0.2309375 7.0315625 -1 7 C-1.625 4.625 -1.625 4.625 -2 2 C-1.34 1.34 -0.68 0.68 0 0 Z " fill="#041435" transform="translate(53,93)"/>
<path d="M0 0 C1.2065625 0.0309375 1.2065625 0.0309375 2.4375 0.0625 C3.0625 2.4375 3.0625 2.4375 3.4375 5.0625 C2.7775 5.7225 2.1175 6.3825 1.4375 7.0625 C-0.6875 6.6875 -0.6875 6.6875 -2.5625 6.0625 C-2.94468767 4.40635343 -3.27645102 2.73792976 -3.5625 1.0625 C-2.5625 0.0625 -2.5625 0.0625 0 0 Z " fill="#041030" transform="translate(133.5625,36.9375)"/>
<path d="M0 0 C1.2065625 0.0309375 1.2065625 0.0309375 2.4375 0.0625 C3.0625 2.4375 3.0625 2.4375 3.4375 5.0625 C2.7775 5.7225 2.1175 6.3825 1.4375 7.0625 C-0.6875 6.6875 -0.6875 6.6875 -2.5625 6.0625 C-2.94468767 4.40635343 -3.27645102 2.73792976 -3.5625 1.0625 C-2.5625 0.0625 -2.5625 0.0625 0 0 Z " fill="#040F2F" transform="translate(75.5625,28.9375)"/>
<path d="M0 0 C1.67542976 0.28604898 3.34385343 0.61781233 5 1 C5 2.65 5 4.3 5 6 C2.625 6.625 2.625 6.625 0 7 C-0.66 6.34 -1.32 5.68 -2 5 C-1.46428571 1.46428571 -1.46428571 1.46428571 0 0 Z " fill="#041334" transform="translate(108,26)"/>
<path d="M0 0 C1.65 0 3.3 0 5 0 C5.38218767 1.65614657 5.71395102 3.32457024 6 5 C5 6 5 6 2.4375 6.0625 C1.2309375 6.0315625 1.2309375 6.0315625 0 6 C0 4.02 0 2.04 0 0 Z " fill="#181D3B" transform="translate(224,63)"/>
</svg>
