<?xml version="1.0" encoding="UTF-8"?>
<svg version="1.1" xmlns="http://www.w3.org/2000/svg" width="500" height="239">
<path d="M0 0 C165 0 330 0 500 0 C500 78.87 500 157.74 500 239 C335 239 170 239 0 239 C0 160.13 0 81.26 0 0 Z " fill="#050A2A" transform="translate(0,0)"/>
<path d="M0 0 C2.1167565 0.02383624 4.23226169 0.02049314 6.34912109 0.01391602 C28.5196564 0.05769822 45.6479055 6.53958485 61.97802734 21.87524414 C75.31187662 35.69156823 82.69184622 51.84665003 82.79052734 71.02368164 C82.82339844 72.13163086 82.85626953 73.23958008 82.89013672 74.38110352 C82.96852455 86.57397507 78.98630866 95.54280501 70.57177734 104.26586914 C64.06623489 110.33618164 64.06623489 110.33618164 60.35302734 110.33618164 C60.33884766 110.91625977 60.32466797 111.49633789 60.31005859 112.09399414 C60.01697812 116.89417704 59.49662293 120.43116897 55.99365234 124.05493164 C50.64647051 128.23082603 44.77626584 129.75490847 38.10302734 130.16040039 C36.32578251 130.15246126 36.32578251 130.15246126 35.35302734 131.33618164 C35.11583992 134.94670134 34.95647053 138.55037913 34.83544922 142.16625977 C34.56630859 148.12290039 34.56630859 148.12290039 32.35302734 150.33618164 C29.54052734 150.96118164 29.54052734 150.96118164 26.35302734 150.33618164 C24.30461032 147.67877578 22.90383109 145.2912565 21.35302734 142.33618164 C20.22537941 140.26838819 19.08712913 138.20692447 17.94213867 136.14868164 C17.13986313 134.70319825 16.34653548 133.25270817 15.56274414 131.79711914 C15.19189697 131.12165039 14.8210498 130.44618164 14.43896484 129.75024414 C14.10944824 129.14132324 13.77993164 128.53240234 13.44042969 127.9050293 C12.27541354 126.01876754 12.27541354 126.01876754 9.35302734 124.33618164 C7.31596259 124.16407506 5.27183422 124.06958274 3.22802734 124.02368164 C-3.0778727 123.60235202 -7.77636069 122.48634892 -12.64697266 118.33618164 C-15.42256784 114.91339239 -17.25646591 111.50770188 -18.64697266 107.33618164 C-19.56921631 107.33730957 -20.49145996 107.3384375 -21.44165039 107.33959961 C-24.90354094 107.32960231 -28.36308936 107.29280371 -31.82446289 107.23852539 C-33.3149325 107.22049227 -34.80556751 107.21277364 -36.29614258 107.21606445 C-45.49954447 107.22840559 -52.56214347 106.86263257 -59.64697266 100.33618164 C-60.26660889 99.79928711 -60.88624512 99.26239258 -61.5246582 98.70922852 C-63.3391215 97.07730827 -65.06173714 95.38919546 -66.77197266 93.64868164 C-67.37235352 93.04217773 -67.97273438 92.43567383 -68.59130859 91.81079102 C-76.28642032 83.84398876 -82.82122716 75.04510313 -83.08447266 63.58618164 C-82.94853545 55.76008266 -80.04138362 50.19779475 -75.08447266 44.27368164 C-72.47527591 41.12926505 -71.1725873 38.22945325 -69.60009766 34.50415039 C-65.77173058 25.79618429 -58.91186763 20.54376453 -50.64697266 16.33618164 C-49.13103516 15.93399414 -49.13103516 15.93399414 -47.58447266 15.52368164 C-44.48431357 14.27042584 -43.77130047 13.49941182 -41.77197266 10.96118164 C-32.3969151 -0.5663126 -13.74888092 -0.16493533 0 0 Z " fill="#040C2D" transform="translate(92.64697265625,64.663818359375)"/>
<path d="M0 0 C2.1167565 0.02383624 4.23226169 0.02049314 6.34912109 0.01391602 C28.5196564 0.05769822 45.6479055 6.53958485 61.97802734 21.87524414 C75.31187662 35.69156823 82.69184622 51.84665003 82.79052734 71.02368164 C82.82339844 72.13163086 82.85626953 73.23958008 82.89013672 74.38110352 C82.96852455 86.57397507 78.98630866 95.54280501 70.57177734 104.26586914 C64.06623489 110.33618164 64.06623489 110.33618164 60.35302734 110.33618164 C60.33884766 110.91625977 60.32466797 111.49633789 60.31005859 112.09399414 C60.01697812 116.89417704 59.49662293 120.43116897 55.99365234 124.05493164 C50.64647051 128.23082603 44.77626584 129.75490847 38.10302734 130.16040039 C36.32578251 130.15246126 36.32578251 130.15246126 35.35302734 131.33618164 C35.11583992 134.94670134 34.95647053 138.55037913 34.83544922 142.16625977 C34.56630859 148.12290039 34.56630859 148.12290039 32.35302734 150.33618164 C29.54052734 150.96118164 29.54052734 150.96118164 26.35302734 150.33618164 C24.30461032 147.67877578 22.90383109 145.2912565 21.35302734 142.33618164 C20.22537941 140.26838819 19.08712913 138.20692447 17.94213867 136.14868164 C17.13986313 134.70319825 16.34653548 133.25270817 15.56274414 131.79711914 C15.19189697 131.12165039 14.8210498 130.44618164 14.43896484 129.75024414 C14.10944824 129.14132324 13.77993164 128.53240234 13.44042969 127.9050293 C12.27541354 126.01876754 12.27541354 126.01876754 9.35302734 124.33618164 C7.31596259 124.16407506 5.27183422 124.06958274 3.22802734 124.02368164 C-3.0778727 123.60235202 -7.77636069 122.48634892 -12.64697266 118.33618164 C-15.42256784 114.91339239 -17.25646591 111.50770188 -18.64697266 107.33618164 C-19.56921631 107.33730957 -20.49145996 107.3384375 -21.44165039 107.33959961 C-24.90354094 107.32960231 -28.36308936 107.29280371 -31.82446289 107.23852539 C-33.3149325 107.22049227 -34.80556751 107.21277364 -36.29614258 107.21606445 C-45.49954447 107.22840559 -52.56214347 106.86263257 -59.64697266 100.33618164 C-60.26660889 99.79928711 -60.88624512 99.26239258 -61.5246582 98.70922852 C-63.3391215 97.07730827 -65.06173714 95.38919546 -66.77197266 93.64868164 C-67.37235352 93.04217773 -67.97273438 92.43567383 -68.59130859 91.81079102 C-76.28642032 83.84398876 -82.82122716 75.04510313 -83.08447266 63.58618164 C-82.94853545 55.76008266 -80.04138362 50.19779475 -75.08447266 44.27368164 C-72.47527591 41.12926505 -71.1725873 38.22945325 -69.60009766 34.50415039 C-65.77173058 25.79618429 -58.91186763 20.54376453 -50.64697266 16.33618164 C-49.13103516 15.93399414 -49.13103516 15.93399414 -47.58447266 15.52368164 C-44.48431357 14.27042584 -43.77130047 13.49941182 -41.77197266 10.96118164 C-32.3969151 -0.5663126 -13.74888092 -0.16493533 0 0 Z M-36.64697266 11.33618164 C-38.15872284 13.04767083 -39.51728791 14.83000629 -40.89697266 16.64868164 C-43.20868611 18.8778339 -45.52879389 19.69877371 -48.52197266 20.83618164 C-60.15480908 25.36882814 -64.1532056 32.45802253 -69.52978516 43.21118164 C-71.5649936 47.26324679 -73.91043251 50.9868951 -76.55322266 54.67211914 C-79.48273645 59.12916513 -79.24552353 64.22660105 -78.64697266 69.33618164 C-75.13202286 81.57926521 -61.42697174 94.70950881 -50.96044922 101.41699219 C-47.79352525 102.67527298 -45.0963328 102.56032876 -41.69384766 102.53149414 C-40.70351532 102.5272493 -40.70351532 102.5272493 -39.69317627 102.5229187 C-37.59425369 102.51176579 -35.49576523 102.4866711 -33.39697266 102.46118164 C-31.96989551 102.45114548 -30.54281164 102.44202074 -29.11572266 102.43383789 C-25.62599938 102.41184275 -22.13652842 102.377347 -18.64697266 102.33618164 C-18.64697266 98.37618164 -18.64697266 94.41618164 -18.64697266 90.33618164 C-24.68752368 89.88278923 -24.68752368 89.88278923 -30.64697266 90.33618164 C-32.35967894 92.74618725 -32.35967894 92.74618725 -33.64697266 95.33618164 C-37.08447266 96.39868164 -37.08447266 96.39868164 -40.64697266 96.33618164 C-43.08447266 94.83618164 -43.08447266 94.83618164 -44.64697266 92.33618164 C-45.14697266 88.77368164 -45.14697266 88.77368164 -44.64697266 85.33618164 C-43.08447266 83.33618164 -43.08447266 83.33618164 -40.64697266 82.33618164 C-37.08447266 82.46118164 -37.08447266 82.46118164 -33.64697266 83.33618164 C-33.22287109 83.83762695 -32.79876953 84.33907227 -32.36181641 84.85571289 C-28.96566999 87.78769351 -24.24804987 86.90702526 -19.98291016 86.83227539 C-16.6007777 86.3293119 -15.49533298 86.06187671 -13.39697266 83.46118164 C-12.53072266 81.91430664 -12.53072266 81.91430664 -11.64697266 80.33618164 C-10.98697266 79.67618164 -10.32697266 79.01618164 -9.64697266 78.33618164 C-10.40880859 77.68262695 -10.40880859 77.68262695 -11.18603516 77.01586914 C-14.52487723 74.12720802 -17.76653161 71.26092533 -20.77197266 68.02368164 C-25.92582539 63.20594974 -31.47307546 62.95163149 -38.20947266 62.89868164 C-38.95132813 62.86581055 -39.69318359 62.83293945 -40.45751953 62.79907227 C-44.7242785 62.75727854 -46.14613092 62.89604799 -49.48291016 65.82836914 C-50.19705078 66.65594727 -50.91119141 67.48352539 -51.64697266 68.33618164 C-55.36534801 69.01914854 -56.89686097 68.84941595 -60.02197266 66.71118164 C-62.09247951 63.68505624 -62.03013535 61.93791096 -61.64697266 58.33618164 C-61.31697266 57.34618164 -60.98697266 56.35618164 -60.64697266 55.33618164 C-52.07554408 54.05046735 -52.07554408 54.05046735 -48.64697266 55.33618164 C-48.31697266 56.65618164 -47.98697266 57.97618164 -47.64697266 59.33618164 C-47.09348145 59.34029053 -46.53999023 59.34439941 -45.96972656 59.34863281 C-23.34017245 59.64298185 -23.34017245 59.64298185 -15.35009766 67.63305664 C-13.94062339 69.20247125 -12.56640648 70.80475126 -11.24072266 72.44555664 C-9.77538852 74.436817 -9.77538852 74.436817 -7.64697266 75.33618164 C-6.27354435 75.40512884 -4.89695164 75.42085872 -3.52197266 75.39868164 C-2.24322266 75.37805664 -0.96447266 75.35743164 0.35302734 75.33618164 C0.68302734 70.71618164 1.01302734 66.09618164 1.35302734 61.33618164 C-1.47900391 60.75024414 -1.47900391 60.75024414 -4.31103516 60.16430664 C-11.30664207 57.68425871 -15.90711647 52.14548338 -20.86572266 46.89477539 C-24.24232802 43.78848815 -27.36148275 41.62282335 -31.98291016 41.04321289 C-34.81494141 41.18969727 -34.81494141 41.18969727 -37.64697266 41.33618164 C-37.97697266 42.32618164 -38.30697266 43.31618164 -38.64697266 44.33618164 C-46.69299127 45.91787761 -46.69299127 45.91787761 -50.20947266 43.77368164 C-52.06055577 40.63488854 -52.24518807 38.92547415 -51.64697266 35.33618164 C-50.20947266 32.89868164 -50.20947266 32.89868164 -47.64697266 31.33618164 C-44.57174491 31.30971669 -41.65948619 31.74397813 -38.64697266 32.33618164 C-38.42525391 33.13926758 -38.20353516 33.94235352 -37.97509766 34.76977539 C-36.91179427 37.55835902 -36.91179427 37.55835902 -34.25634766 38.12133789 C-33.31275391 38.21286133 -32.36916016 38.30438477 -31.39697266 38.39868164 C-23.4173603 39.20325581 -18.80027931 43.91288487 -13.52197266 49.46118164 C-8.4530079 55.00340402 -8.4530079 55.00340402 -1.64697266 57.67211914 C2.85541696 57.80155912 2.85541696 57.80155912 6.60302734 55.46118164 C7.18052734 54.75993164 7.75802734 54.05868164 8.35302734 53.33618164 C11.11131979 51.69047775 13.19205484 51.21262263 16.35302734 50.96118164 C23.73820316 49.42260335 28.9859468 43.12114548 33.35302734 37.33618164 C34.36787029 34.10371894 34.35302734 31.76933164 34.35302734 28.33618164 C35.97802734 26.21118164 35.97802734 26.21118164 38.35302734 25.33618164 C44.68030007 25.66345437 44.68030007 25.66345437 47.35302734 28.33618164 C47.90097255 35.24029123 47.90097255 35.24029123 46.35302734 38.33618164 C44.35302734 39.33618164 44.35302734 39.33618164 40.58349609 39.03930664 C36.86669415 38.9957471 36.4701188 39.23754566 33.40380859 41.82055664 C32.47666531 42.89687437 31.56435611 43.98610828 30.66552734 45.08618164 C25.74396016 50.58699107 21.64277452 52.95615992 14.26318359 54.49243164 C10.15247043 55.68426257 7.50538901 57.69389376 5.04833984 61.19555664 C4.11722543 64.06213361 4.16266707 66.57960912 4.22802734 69.58618164 C4.24607422 70.66383789 4.26412109 71.74149414 4.28271484 72.85180664 C4.30591797 73.67165039 4.32912109 74.49149414 4.35302734 75.33618164 C8.09641849 75.88209285 10.21771657 76.09448355 13.42333984 73.95336914 C16.43832236 71.3052286 19.20790261 68.48821707 21.97802734 65.58618164 C28.55294443 59.35731282 35.40014754 59.9152315 43.91748047 59.98461914 C46.48355927 59.94103394 48.84380812 59.88006903 51.35302734 59.33618164 C53.30905855 56.94464264 53.30905855 56.94464264 54.35302734 54.33618164 C57.06789707 53.50420544 59.57956213 53.81615691 62.35302734 54.33618164 C64.35302734 55.46118164 64.35302734 55.46118164 65.35302734 57.33618164 C65.76919253 60.59614228 65.62964614 62.67921199 64.35302734 65.71118164 C61.66115025 67.89833178 59.67478659 67.81615499 56.29052734 67.86743164 C54.35302734 67.33618164 54.35302734 67.33618164 53.14990234 65.33227539 C51.00824882 62.95317768 50.45489107 63.00962343 47.36865234 62.84008789 C45.77999117 62.83875958 44.19119604 62.85910509 42.60302734 62.89868164 C41.81669922 62.8915918 41.03037109 62.88450195 40.22021484 62.87719727 C33.60809065 62.94859063 28.2594888 64.29997038 23.36865234 69.00024414 C22.43613132 69.97717092 21.5142147 70.96432709 20.60302734 71.96118164 C16.91208304 75.92665899 14.76380934 78.2332301 9.06005859 78.47680664 C7.77486328 78.51290039 6.48966797 78.54899414 5.16552734 78.58618164 C-1.20087927 78.91375791 -5.98150963 79.77865992 -10.64697266 84.33618164 C-15.50882518 89.92731204 -15.08795438 95.49703447 -15.08056641 102.71508789 C-14.34837905 108.82984175 -11.69479548 113.28341469 -7.00634766 117.16040039 C-2.89433295 119.20959977 1.42859333 118.96772485 5.95068359 118.93774414 C10.22282803 119.43804119 12.09967612 120.5278853 15.35302734 123.33618164 C17.15491387 125.81487777 18.57219004 128.42989271 19.97802734 131.14868164 C20.72006492 132.53027259 21.46225132 133.91178362 22.20458984 135.29321289 C22.55811523 135.96304199 22.91164063 136.63287109 23.27587891 137.32299805 C24.90369221 140.36537078 26.62690621 143.3486643 28.35302734 146.33618164 C29.01302734 146.33618164 29.67302734 146.33618164 30.35302734 146.33618164 C30.39041016 145.22758789 30.42779297 144.11899414 30.46630859 142.97680664 C30.53198182 141.5132319 30.5984287 140.04969173 30.66552734 138.58618164 C30.68808594 137.85657227 30.71064453 137.12696289 30.73388672 136.37524414 C30.88897597 133.27345915 31.17797139 130.71011069 32.50146484 127.88305664 C35.12665309 125.6898614 37.28769309 125.64786185 40.66552734 125.33618164 C46.10326903 124.64058621 49.31277459 124.05746707 53.35302734 120.33618164 C55.54005097 117.34724935 56.35302734 116.0567371 56.35302734 112.33618164 C50.41302734 112.83118164 50.41302734 112.83118164 44.35302734 113.33618164 C43.85802734 114.82118164 43.85802734 114.82118164 43.35302734 116.33618164 C39.77298961 117.52952755 37.10986838 117.67161388 33.35302734 117.33618164 C30.72761322 115.13422141 30.40848254 113.71644585 29.91552734 110.33618164 C30.35302734 107.33618164 30.35302734 107.33618164 31.91552734 104.89868164 C34.35302734 103.33618164 34.35302734 103.33618164 37.85302734 103.27368164 C41.35302734 104.33618164 41.35302734 104.33618164 43.35302734 106.89868164 C45.1715217 109.65220094 45.1715217 109.65220094 48.47802734 109.89868164 C58.42135401 108.45529551 65.81064839 103.98055705 72.35302734 96.33618164 C79.32545577 84.64616976 80.03464201 70.87883836 77.70458984 57.65649414 C72.48032273 39.39388517 60.58931019 22.6969035 43.89208984 13.32836914 C23.83792999 2.6666639 -17.06671984 -3.6438913 -36.64697266 11.33618164 Z " fill="#01A6D1" transform="translate(92.64697265625,64.663818359375)"/>
<path d="M0 0 C5.36787898 1.88869816 8.45991584 4.91983169 11 10 C11.40253336 15.28910111 11.55311917 20.21290155 9 25 C10.32 25.33 11.64 25.66 13 26 C13 27.65 13 29.3 13 31 C9.31292314 31.146259 5.62660018 31.23438838 1.9375 31.3125 C0.89916016 31.35439453 -0.13917969 31.39628906 -1.20898438 31.43945312 C-8.22216595 31.55077347 -11.7958976 30.7939965 -17 26 C-20.55549216 21.06818829 -20.85301373 15.88483632 -20 10 C-15.77225083 1.21929018 -9.22475632 -1.23197071 0 0 Z " fill="#8578F7" transform="translate(351,114)"/>
<path d="M0 0 C14 0 14 0 19 4 C19.35627284 7.44397075 19.56430248 9.87139505 18 13 C17.34 13 16.68 13 16 13 C16 13.66 16 14.32 16 15 C16.61875 15.28875 17.2375 15.5775 17.875 15.875 C20 17 20 17 22 19 C22.51156434 22.83673259 22.30501126 24.52670667 20.1875 27.8125 C18 30 18 30 15 31 C10.05 31 5.1 31 0 31 C0 20.77 0 10.54 0 0 Z " fill="#E9EDF5" transform="translate(190,114)"/>
<path d="M0 0 C7 0 7 0 8.6015625 1.43359375 C8.93929688 2.09488281 9.27703125 2.75617188 9.625 3.4375 C10.01300781 4.15808594 10.40101563 4.87867187 10.80078125 5.62109375 C11.19652344 6.40613281 11.59226562 7.19117187 12 8 C12.93346826 9.66892811 13.87087035 11.335663 14.8125 13 C15.534375 14.32 16.25625 15.64 17 17 C17.33 11.39 17.66 5.78 18 0 C20.31 0 22.62 0 25 0 C25 10.23 25 20.46 25 31 C22.36 31 19.72 31 17 31 C14.03 25.39 11.06 19.78 8 14 C7.67 19.61 7.34 25.22 7 31 C4.69 31 2.38 31 0 31 C0 20.77 0 10.54 0 0 Z " fill="#EAEEF6" transform="translate(288,114)"/>
<path d="M0 0 C14 0 14 0 19 3 C21.45717992 6.68576988 21.69957317 9.71927846 21 14 C19.125 17 19.125 17 17 19 C16.34 19 15.68 19 15 19 C15.86625 20.299375 15.86625 20.299375 16.75 21.625 C18.83333333 24.75 20.91666667 27.875 23 31 C19.84005495 31.56879011 17.13414169 31.7797133 14 31 C11.40155657 28.30706772 9.6833009 25.32699471 8 22 C7.67 24.97 7.34 27.94 7 31 C4.69 31 2.38 31 0 31 C0 20.77 0 10.54 0 0 Z " fill="#EBEFF7" transform="translate(216,114)"/>
<path d="M0 0 C2.125 1.625 2.125 1.625 3 4 C2.93522551 7.69214611 2.83501397 10.03652234 0.375 12.875 C-2 14 -2 14 -5.29296875 14.23046875 C-9.76803612 15.15943426 -11.77500622 17.13946747 -14.6875 20.4375 C-18.64425724 24.77161978 -21.36612218 27.60243354 -27.3125 28.5 C-32.20863984 27.83611663 -34.80124886 25.67982981 -38 22 C-38.34417969 21.30648437 -38.68835938 20.61296875 -39.04296875 19.8984375 C-40.4003561 17.20582422 -42.40521092 16.427134 -45 15 C-47 13 -47 13 -47.4375 9.125 C-47.34104055 5.81523525 -47.11838617 5.14708585 -44.9375 2.4375 C-41.10852228 0.56374495 -39.06665724 0.87037299 -35 2 C-33.0625 3.0625 -33.0625 3.0625 -32 5 C-31.64405241 7.80165201 -31.77288669 10.13837234 -32 13 C-32.66 13.66 -33.32 14.32 -34 15 C-33.8421384 18.07830123 -33.38538785 19.57179128 -31.3125 21.875 C-28.09353497 23.44098299 -26.43467245 22.91647319 -23 22 C-18.62261636 18.89267415 -13.58337915 14.94424164 -12.5 9.4765625 C-12.58086782 7.95523663 -12.70448315 6.43533085 -12.87890625 4.921875 C-13 3 -13 3 -11.5625 0.375 C-7.6340583 -1.73294433 -4.20674308 -1.22464732 0 0 Z " fill="#01A6D1" transform="translate(115,80)"/>
<path d="M0 0 C3.5 0.5 3.5 0.5 5.9375 2.0625 C8.10396028 5.44217804 8.06288002 7.55983987 7.5 11.5 C5.9375 13.9375 5.9375 13.9375 3.5 15.5 C0 16 0 16 -3.5 15.5 C-5.9375 13.625 -5.9375 13.625 -7.5 11.5 C-7.5 10.84 -7.5 10.18 -7.5 9.5 C-20.05343733 9.07846744 -20.05343733 9.07846744 -30.875 14.875 C-32.45531054 16.3770289 -34.003482 17.91446978 -35.5 19.5 C-36.07105469 20.01820313 -36.64210938 20.53640625 -37.23046875 21.0703125 C-38.81852743 22.64374829 -38.81852743 22.64374829 -39.4375 26 C-40.5 29.5 -40.5 29.5 -42.25 31.4375 C-45.26566861 32.86156573 -47.20166169 32.98100767 -50.5 32.5 C-53.43507943 30.43751175 -54.34435488 28.95720755 -55.5 25.5625 C-55.5 22.5 -55.5 22.5 -54.25 19.625 C-50.97009866 17.09053078 -50.38382998 17.42294811 -46.4375 17.8125 C-42.36145102 18.04744652 -40.86786796 17.75997903 -37.4765625 15.36328125 C-35.57901912 13.58020094 -33.72044227 11.75441896 -31.91015625 9.8828125 C-28.56372462 6.57434687 -26.01464115 5.26617526 -21.3125 5.2265625 C-20.53132813 5.2059375 -19.75015625 5.1853125 -18.9453125 5.1640625 C-17.31521022 5.13802253 -15.68496447 5.11979211 -14.0546875 5.109375 C-9.17748911 5.04287049 -9.17748911 5.04287049 -5.15625 2.4921875 C-3.5 0.5 -3.5 0.5 0 0 Z " fill="#01A7D2" transform="translate(144.5,142.5)"/>
<path d="M0 0 C2.31 0 4.62 0 7 0 C8.71117059 4.25327531 10.42010968 8.50743753 12.12695312 12.76245117 C12.70836551 14.21094192 13.29039555 15.6591849 13.87304688 17.10717773 C14.70864345 19.18408996 15.54204147 21.26187236 16.375 23.33984375 C16.63748535 23.99089584 16.8999707 24.64194794 17.17041016 25.31272888 C19 29.88612829 19 29.88612829 19 31 C16.36 31 13.72 31 11 31 C10.34 29.35 9.68 27.7 9 26 C5.04 25.67 1.08 25.34 -3 25 C-3.66 26.98 -4.32 28.96 -5 31 C-7.31 31 -9.62 31 -12 31 C-9.99765361 23.68094152 -7.36796037 16.81435498 -4.3125 9.875 C-3.89677734 8.91851562 -3.48105469 7.96203125 -3.05273438 6.9765625 C-2.04015854 4.64880196 -1.02253838 2.32339703 0 0 Z " fill="#E9EDF5" transform="translate(252,114)"/>
<path d="M0 0 C3.33253442 1.24607809 3.94039621 1.91059432 6 5 C6 6.32 6 7.64 6 9 C3.1875 9.1875 3.1875 9.1875 0 9 C-1.02019573 8.0206121 -2.02149805 7.02104551 -3 6 C-5.62570704 5.74930087 -5.62570704 5.74930087 -8 6 C-8.33 7.32 -8.66 8.64 -9 10 C-8.19175781 10.23074219 -7.38351562 10.46148437 -6.55078125 10.69921875 C5.00166574 14.22487507 5.00166574 14.22487507 8 19 C8.15975526 23.47314719 7.49570758 25.3837149 4.6875 28.875 C0.55692181 32.14103857 -2.67822448 32.3482848 -7.96875 32.2890625 C-11.33048218 31.81066215 -13.44201858 30.13165119 -16 28 C-18 25 -18 25 -18 21 C-15.69 21 -13.38 21 -11 21 C-10.67 21.99 -10.34 22.98 -10 24 C-7.71294169 25.14352916 -6.40735238 25.10334439 -3.875 25.0625 C-2.59625 25.041875 -1.3175 25.02125 0 25 C0 23.35 0 21.7 0 20 C-0.80824219 19.82984375 -1.61648438 19.6596875 -2.44921875 19.484375 C-14.0907946 16.84430714 -14.0907946 16.84430714 -17 13 C-17.76441702 8.18417281 -17.69753545 6.19577507 -15.25 2 C-10.38284475 -0.99517246 -5.58123921 -0.72932287 0 0 Z " fill="#8477F5" transform="translate(441,114)"/>
<path d="M0 0 C2.31 0 4.62 0 7 0 C7.02505615 0.6612085 7.0501123 1.32241699 7.07592773 2.00366211 C7.19153102 4.98182305 7.31441754 7.9596392 7.4375 10.9375 C7.47681641 11.97841797 7.51613281 13.01933594 7.55664062 14.09179688 C7.59853516 15.08115234 7.64042969 16.07050781 7.68359375 17.08984375 C7.72025146 18.00628662 7.75690918 18.92272949 7.79467773 19.86694336 C7.77003864 21.9820728 7.77003864 21.9820728 9 23 C11.67058851 23.14115161 14.32432238 23.04247107 17 23 C18.20270964 20.59458071 18.20316663 18.89633409 18.31640625 16.2109375 C18.35830078 15.26992187 18.40019531 14.32890625 18.44335938 13.359375 C18.48267578 12.37453125 18.52199219 11.3896875 18.5625 10.375 C18.60568359 9.38242188 18.64886719 8.38984375 18.69335938 7.3671875 C18.79961069 4.91160162 18.90164964 2.45591297 19 0 C20.98 0 22.96 0 25 0 C25.08732726 3.89569135 25.14050185 7.79112982 25.1875 11.6875 C25.21263672 12.79029297 25.23777344 13.89308594 25.26367188 15.02929688 C25.27333984 16.09599609 25.28300781 17.16269531 25.29296875 18.26171875 C25.3086792 19.24100342 25.32438965 20.22028809 25.34057617 21.22924805 C24.93924995 24.49423106 23.90737172 26.34554276 22 29 C18.9126483 31.17161179 16.21734933 31.270425 12.5 31.25 C11.5615625 31.25515625 10.623125 31.2603125 9.65625 31.265625 C6.79564756 30.97956476 5.31264878 30.7050885 3 29 C-0.99653231 23.52160739 -0.3430148 17.60079572 -0.1875 11.125 C-0.17396484 10.05507812 -0.16042969 8.98515625 -0.14648438 7.8828125 C-0.11128624 5.25468489 -0.06204693 2.62760806 0 0 Z " fill="#8678F9" transform="translate(368,114)"/>
<path d="M0 0 C5.94 0 11.88 0 18 0 C18 1.98 18 3.96 18 6 C14.37 6 10.74 6 7 6 C7 7.98 7 9.96 7 12 C10.63 12 14.26 12 18 12 C18 14.31 18 16.62 18 19 C14.37 19 10.74 19 7 19 C7 20.98 7 22.96 7 25 C10.63 25 14.26 25 18 25 C18 26.98 18 28.96 18 31 C12.06 31 6.12 31 0 31 C0 20.77 0 10.54 0 0 Z " fill="#8477F6" transform="translate(399,114)"/>
<path d="M0 0 C8.25 0 16.5 0 25 0 C25 1.98 25 3.96 25 6 C22.03 6 19.06 6 16 6 C16 14.25 16 22.5 16 31 C13.69 31 11.38 31 9 31 C9 22.75 9 14.5 9 6 C6.03 6 3.06 6 0 6 C0 4.02 0 2.04 0 0 Z " fill="#8779FA" transform="translate(451,114)"/>
<path d="M0 0 C2.75025718 1.7569363 3.35449951 2.98324911 5 6 C5.06761916 9.92191148 4.54909835 12.10771518 2.5 15.4375 C-1.25538525 17.78461578 -4.6971591 17.89214866 -9 17 C-11.72246943 14.87514581 -12.73121981 13.42877889 -13.37109375 10.02734375 C-13.57582272 6.7082529 -13.2198665 4.38237652 -11.5625 1.5 C-7.72932387 -0.74381042 -4.31920672 -1.00500192 0 0 Z " fill="#080D2F" transform="translate(351,121)"/>
<path d="M0 0 C2.31 0 4.62 0 7 0 C7 10.23 7 20.46 7 31 C4.69 31 2.38 31 0 31 C0 20.77 0 10.54 0 0 Z " fill="#E7EBF3" transform="translate(275,114)"/>
<path d="M0 0 C1.99954746 -0.04254356 4.00041636 -0.04080783 6 0 C7 1 7 1 7.125 4 C7 7 7 7 6 8 C4.00041636 8.04080783 1.99954746 8.04254356 0 8 C0 5.36 0 2.72 0 0 Z " fill="#080D2D" transform="translate(223,120)"/>
<path d="M0 0 C2.31 0.33 4.62 0.66 7 1 C7.042721 2.66611905 7.04063832 4.33382885 7 6 C6 7 6 7 2.9375 7.0625 C1.4834375 7.0315625 1.4834375 7.0315625 0 7 C0 4.69 0 2.38 0 0 Z " fill="#0D1231" transform="translate(197,132)"/>
<path d="M0 0 C2.625 0.375 2.625 0.375 5 1 C5.125 3.375 5.125 3.375 5 6 C4.34 6.66 3.68 7.32 3 8 C0.875 7.625 0.875 7.625 -1 7 C-1.625 4.625 -1.625 4.625 -2 2 C-1.34 1.34 -0.68 0.68 0 0 Z " fill="#041D3E" transform="translate(46,99)"/>
<path d="M0 0 C2.95183101 2.95183101 3.08663988 5.95511947 4 10 C1.69 10 -0.62 10 -3 10 C-2.49287967 6.28111761 -1.88391785 3.26545761 0 0 Z " fill="#1D2240" transform="translate(255,123)"/>
<path d="M0 0 C2.625 0.375 2.625 0.375 5 1 C5.625 2.875 5.625 2.875 6 5 C5.34 5.66 4.68 6.32 4 7 C1.375 6.625 1.375 6.625 -1 6 C-1.625 4.125 -1.625 4.125 -2 2 C-1.34 1.34 -0.68 0.68 0 0 Z " fill="#041737" transform="translate(149,122)"/>
<path d="M0 0 C1.66611905 -0.042721 3.33382885 -0.04063832 5 0 C6 1 6 1 6.0625 3.5625 C6.041875 4.366875 6.02125 5.17125 6 6 C3.625 6.625 3.625 6.625 1 7 C0.34 6.34 -0.32 5.68 -1 5 C-0.625 2.375 -0.625 2.375 0 0 Z " fill="#041536" transform="translate(127,172)"/>
<path d="M0 0 C1.2065625 0.0309375 1.2065625 0.0309375 2.4375 0.0625 C3.0625 2.4375 3.0625 2.4375 3.4375 5.0625 C2.7775 5.7225 2.1175 6.3825 1.4375 7.0625 C-1.1875 6.6875 -1.1875 6.6875 -3.5625 6.0625 C-3.605221 4.39638095 -3.60313832 2.72867115 -3.5625 1.0625 C-2.5625 0.0625 -2.5625 0.0625 0 0 Z " fill="#041334" transform="translate(144.5625,146.9375)"/>
<path d="M0 0 C1.2065625 0.0309375 1.2065625 0.0309375 2.4375 0.0625 C3.0625 2.4375 3.0625 2.4375 3.4375 5.0625 C2.7775 5.7225 2.1175 6.3825 1.4375 7.0625 C-1.1875 6.6875 -1.1875 6.6875 -3.5625 6.0625 C-3.605221 4.39638095 -3.60313832 2.72867115 -3.5625 1.0625 C-2.5625 0.0625 -2.5625 0.0625 0 0 Z " fill="#041637" transform="translate(38.5625,122.9375)"/>
<path d="M0 0 C1.2065625 0.0309375 1.2065625 0.0309375 2.4375 0.0625 C3.0625 2.4375 3.0625 2.4375 3.4375 5.0625 C2.7775 5.7225 2.1175 6.3825 1.4375 7.0625 C-0.6875 6.6875 -0.6875 6.6875 -2.5625 6.0625 C-2.94468767 4.40635343 -3.27645102 2.73792976 -3.5625 1.0625 C-2.5625 0.0625 -2.5625 0.0625 0 0 Z " fill="#041131" transform="translate(97.5625,163.9375)"/>
<path d="M0 0 C2.125 0.375 2.125 0.375 4 1 C4.38218767 2.65614657 4.71395102 4.32457024 5 6 C4 7 4 7 1.4375 7.0625 C0.2309375 7.0315625 0.2309375 7.0315625 -1 7 C-1.625 4.625 -1.625 4.625 -2 2 C-1.34 1.34 -0.68 0.68 0 0 Z " fill="#041435" transform="translate(53,150)"/>
<path d="M0 0 C1.2065625 0.0309375 1.2065625 0.0309375 2.4375 0.0625 C3.0625 2.4375 3.0625 2.4375 3.4375 5.0625 C2.7775 5.7225 2.1175 6.3825 1.4375 7.0625 C-0.6875 6.6875 -0.6875 6.6875 -2.5625 6.0625 C-2.94468767 4.40635343 -3.27645102 2.73792976 -3.5625 1.0625 C-2.5625 0.0625 -2.5625 0.0625 0 0 Z " fill="#041030" transform="translate(133.5625,93.9375)"/>
<path d="M0 0 C1.2065625 0.0309375 1.2065625 0.0309375 2.4375 0.0625 C3.0625 2.4375 3.0625 2.4375 3.4375 5.0625 C2.7775 5.7225 2.1175 6.3825 1.4375 7.0625 C-0.6875 6.6875 -0.6875 6.6875 -2.5625 6.0625 C-2.94468767 4.40635343 -3.27645102 2.73792976 -3.5625 1.0625 C-2.5625 0.0625 -2.5625 0.0625 0 0 Z " fill="#040F2F" transform="translate(75.5625,85.9375)"/>
<path d="M0 0 C1.67542976 0.28604898 3.34385343 0.61781233 5 1 C5 2.65 5 4.3 5 6 C2.625 6.625 2.625 6.625 0 7 C-0.66 6.34 -1.32 5.68 -2 5 C-1.46428571 1.46428571 -1.46428571 1.46428571 0 0 Z " fill="#041334" transform="translate(108,83)"/>
<path d="M0 0 C2.475 0.495 2.475 0.495 5 1 C4.67 2.65 4.34 4.3 4 6 C2.68 6 1.36 6 0 6 C0 4.02 0 2.04 0 0 Z " fill="#050A2A" transform="translate(197,120)"/>
</svg>
